<svg width="48" height="48" viewBox="0 0 48 48" fill="none" xmlns="http://www.w3.org/2000/svg">
<path d="M40.2112 6H7.56522C6.67081 6 6 6.675 6 7.575V40.65C6 41.325 6.67081 42 7.56522 42H40.4348C41.3292 42 42 41.325 42 40.425V7.575C41.7764 6.675 41.1056 6 40.2112 6ZM16.5093 36.6H11.3665V19.5H16.7329V36.6H16.5093ZM14.0497 17.25C12.2609 17.25 10.9193 15.675 10.9193 14.1C10.9193 12.3 12.2609 10.95 14.0497 10.95C15.8385 10.95 17.1801 12.3 17.1801 14.1C16.9565 15.675 15.6149 17.25 14.0497 17.25ZM36.4099 36.6H31.0435V28.275C31.0435 26.25 31.0435 23.775 28.3602 23.775C25.677 23.775 25.2298 26.025 25.2298 28.275V36.825H19.8634V19.5H25.0062V21.75C25.677 20.4 27.4658 19.05 29.9255 19.05C35.2919 19.05 36.1863 22.65 36.1863 27.15V36.6H36.4099Z" fill="black" fill-opacity="0.87"/>
</svg>
