<svg width="48" height="49" viewBox="0 0 48 49" fill="none" xmlns="http://www.w3.org/2000/svg">
<path d="M40.2112 6.29102H7.56522C6.67081 6.29102 6 6.96602 6 7.86602V40.941C6 41.616 6.67081 42.291 7.56522 42.291H40.4348C41.3292 42.291 42 41.616 42 40.716V7.86602C41.7764 6.96602 41.1056 6.29102 40.2112 6.29102ZM16.5093 36.891H11.3665V19.791H16.7329V36.891H16.5093ZM14.0497 17.541C12.2609 17.541 10.9193 15.966 10.9193 14.391C10.9193 12.591 12.2609 11.241 14.0497 11.241C15.8385 11.241 17.1801 12.591 17.1801 14.391C16.9565 15.966 15.6149 17.541 14.0497 17.541ZM36.4099 36.891H31.0435V28.566C31.0435 26.541 31.0435 24.066 28.3602 24.066C25.677 24.066 25.2298 26.316 25.2298 28.566V37.116H19.8634V19.791H25.0062V22.041C25.677 20.691 27.4658 19.341 29.9255 19.341C35.2919 19.341 36.1863 22.941 36.1863 27.441V36.891H36.4099Z" fill="#148A82"/>
</svg>
