<svg width="800" height="800" viewBox="0 0 800 800" fill="none" xmlns="http://www.w3.org/2000/svg">
<path fill-rule="evenodd" clip-rule="evenodd" d="M800 0H257.382L0 257.382V800H66.1157V304.132H495.868V456.198H561.983V284.768L733.884 112.867V112.89L800 46.7745V0ZM515.233 238.017H112.867L284.767 66.1157H687.134L515.233 238.017Z" fill="black" fill-opacity="0.87"/>
<path fill-rule="evenodd" clip-rule="evenodd" d="M800 46.7745L733.884 112.89L733.884 495.868H304.132V343.802H238.017V515.233L66.1157 687.134L66.1157 800L543.089 800L800 543.089L800 46.7745ZM561.983 687.603L687.603 561.983H284.768L112.867 733.884H495.868V601.653H561.983V687.603Z" fill="black" fill-opacity="0.38"/>
<path d="M304.132 66.1157L284.767 66.1157L238.017 112.867V198.347H304.132V66.1157Z" fill="black" fill-opacity="0.38"/>
</svg>
