<svg width="48" height="49" viewBox="0 0 48 49" fill="none" xmlns="http://www.w3.org/2000/svg">
<mask id="mask0_3492_95127" style="mask-type:alpha" maskUnits="userSpaceOnUse" x="0" y="0" width="48" height="49">
<rect y="0.708984" width="48" height="48" fill="#D9D9D9"/>
</mask>
<g mask="url(#mask0_3492_95127)">
<path d="M8 41C6.9 41 5.95867 40.6087 5.176 39.826C4.392 39.042 4 38.1 4 37V13C4 11.9 4.392 10.9587 5.176 10.176C5.95867 9.392 6.9 9 8 9H40C41.1 9 42.042 9.392 42.826 10.176C43.6087 10.9587 44 11.9 44 13V37C44 38.1 43.6087 39.042 42.826 39.826C42.042 40.6087 41.1 41 40 41H8ZM24 27L40 17V13L24 23L8 13V17L24 27Z" fill="black" fill-opacity="0.87"/>
</g>
</svg>
