<svg width="48" height="48" viewBox="0 0 48 48" fill="none" xmlns="http://www.w3.org/2000/svg">
<mask id="mask0_3773_96491" style="mask-type:alpha" maskUnits="userSpaceOnUse" x="0" y="0" width="48" height="48">
<rect width="48" height="48" fill="#D9D9D9"/>
</mask>
<g mask="url(#mask0_3773_96491)">
<path d="M8 40.291C6.9 40.291 5.95867 39.8997 5.176 39.117C4.392 38.333 4 37.391 4 36.291V12.291C4 11.191 4.392 10.2497 5.176 9.46702C5.95867 8.68302 6.9 8.29102 8 8.29102H40C41.1 8.29102 42.042 8.68302 42.826 9.46702C43.6087 10.2497 44 11.191 44 12.291V36.291C44 37.391 43.6087 38.333 42.826 39.117C42.042 39.8997 41.1 40.291 40 40.291H8ZM24 26.291L40 16.291V12.291L24 22.291L8 12.291V16.291L24 26.291Z" fill="black" fill-opacity="0.6"/>
</g>
</svg>
